<svg width="109.99999999999999" height="109.99999999999999" xmlns="http://www.w3.org/2000/svg">

 <g>
  <title>background</title>
  <rect fill="none" id="canvas_background" height="402" width="582" y="-1" x="-1"/>
 </g>
 <g>
  <title>Layer 1</title>
  <circle id="svg_1" fill="#f47c13" r="55" cy="55" cx="55"/>
  <path id="svg_4" fill="#FBC8C8" d="m37,79c0,0 3.778,-10.389999 -2.436001,-17.401001c-0.339001,-0.382999 -0.335999,-0.959999 0.010002,-1.336998c2.145,-2.345001 5.953999,-2.295002 11.425999,7.737999c1.429001,2.619003 4.409,2.478996 7,1c4.928001,-2.813004 12.040001,-11.775002 19.5,-9.591999c0.338997,0.098999 0.600998,0.369999 0.688004,0.711998c0.086998,0.342003 -0.013,0.705002 -0.263,0.955002l-25.925003,25.924999l-10,-8z"/>
  <path id="svg_6" fill="#F0F1F1" d="m87,58c0,0.551998 -0.447998,1 -1,1l-62,0c-0.552,0 -1,-0.448002 -1,-1l0,-2c0,-0.551998 0.448,-1 1,-1l62,0c0.552002,0 1,0.448002 1,1l0,2z"/>
  <path id="svg_8" fill="#FFFFFF" d="m55,27c1.042,0 2.034,0.046 3,0.115l0,-3.115c0,-0.552 -0.448002,-1 -1,-1l-4,0c-0.551998,0 -1,0.448 -1,1l0,3.115c0.966,-0.069 1.958,-0.115 3,-0.115z"/>
  <path id="svg_10" fill="#E2E4E5" d="m27,55c0,0 -1,-28 28,-28s28,28 28,28l-56,0z"/>
  <polygon id="svg_12" fill="#3E3E3F" points="37,79 27,87 47,87    "/>
  <path id="svg_14" fill="#FFFFFF" d="m55,27c-29,0 -28,28 -28,28l28,0l0,-28z"/>
  <path id="svg_16" fill="#FBC8C8" d="m37,79c0,0 3.778,-10.389999 -2.436001,-17.401001c-0.339001,-0.382999 -0.335999,-0.959999 0.010002,-1.336998c2.145,-2.345001 5.953999,-2.295002 11.425999,7.737999c1.429001,2.619003 4.409,2.478996 7,1c4.928001,-2.813004 12.040001,-11.775002 19.5,-9.591999c0.338997,0.098999 0.600998,0.369999 0.688004,0.711998c0.086998,0.342003 -0.013,0.705002 -0.263,0.955002l-25.925003,25.924999l-10,-8z"/>
  <path id="svg_18" fill="#F7B4B4" d="m72.925003,61.075001c0.25,-0.25 0.349998,-0.612 0.263,-0.955002s-0.349007,-0.612999 -0.688004,-0.711998c-7.459999,-2.181999 -14.571999,6.778996 -19.5,9.591999c-2.591,1.478996 -5.570999,1.619003 -7,-1c-5.472,-10.033001 -9.280998,-10.083 -11.425999,-7.737999c-0.345001,0.376999 -0.349003,0.954998 -0.010002,1.336998c6.214001,7.010002 2.436001,17.401001 2.436001,17.401001l2.727001,2.181999l30.975002,-17.883999l2.223,-2.223z"/>
 </g>
</svg>